<svg width="68" height="67" viewBox="0 0 68 67" fill="none" xmlns="http://www.w3.org/2000/svg">
<path fill-rule="evenodd" clip-rule="evenodd" d="M54.2274 0C54.9953 0 55.6177 0.622447 55.6177 1.39027V3.96125H58.379C59.1468 3.96125 59.7693 4.58369 59.7693 5.35152C59.7693 6.11935 59.1468 6.74179 58.379 6.74179H55.6177V9.50307C55.6177 10.2709 54.9953 10.8933 54.2274 10.8933C53.4596 10.8933 52.8372 10.2709 52.8372 9.50307V6.74179H50.2662C49.4984 6.74179 48.8759 6.11935 48.8759 5.35152C48.8759 4.58369 49.4984 3.96125 50.2662 3.96125H52.8372V1.39027C52.8372 0.622447 53.4596 0 54.2274 0ZM47.4641 32.3731C47.5471 31.8625 47.7211 30.6365 47.7211 29.346C47.7211 28.0251 47.5384 26.7749 47.4585 26.2869C47.5384 25.7997 47.7211 24.5487 47.7211 23.2277C47.7211 21.8231 47.5144 20.4917 47.4442 20.0809C47.3755 15.3993 38.9061 12.874 30.9332 12.874C22.9363 12.874 14.4397 15.4138 14.4198 20.1211C14.344 20.5754 14.1516 21.8609 14.1516 23.2197C14.1516 24.5414 14.3336 25.7916 14.4134 26.2788C14.3336 26.7661 14.1516 28.0163 14.1516 29.338C14.1516 30.6485 14.3312 31.8899 14.4118 32.3859C14.3344 32.8514 14.1692 33.9931 14.1516 35.216C6.23612 35.9018 0 42.6006 0 50.749C0 59.3516 6.94809 66.3504 15.4877 66.3504C21.4645 66.3504 26.651 62.9173 29.2331 57.9117C29.8093 57.9358 30.38 57.9527 30.934 57.9527C31.2101 57.9527 31.4791 57.9527 31.7752 57.9455C32.0658 57.9382 32.3555 57.931 32.6389 57.9117C32.7618 57.9109 32.8831 57.9053 33.0308 57.898C33.0587 57.898 33.0866 57.8972 33.1146 57.8948L33.9606 57.8337C34.1704 57.8207 34.3694 57.8026 34.6167 57.7801L34.6543 57.7766C42.1914 57.0627 47.1592 54.4031 47.425 50.9765L47.4271 50.9648C47.4566 50.7982 47.7235 49.29 47.7235 47.6987C47.7235 46.3962 47.5463 45.1339 47.4585 44.613C47.6748 43.2486 47.7235 42.193 47.7235 41.5457C47.7235 40.9066 47.6756 39.867 47.4601 38.4858C47.6748 37.1238 47.7235 36.0698 47.7235 35.4242C47.7227 34.1 47.5423 32.849 47.4641 32.3731ZM25.9795 39.3075C27.5543 39.5117 29.2193 39.6218 30.9338 39.6218C34.3914 39.6218 37.6855 39.1861 40.4599 38.3628C41.0945 38.1747 41.4569 37.5041 41.2701 36.865C41.0833 36.2258 40.4168 35.8624 39.7839 36.0489C37.2265 36.8087 34.1664 37.2099 30.9346 37.2099C25.752 37.2099 20.9423 36.1406 18.3817 34.4208L18.379 34.4189C18.3771 34.4177 18.375 34.4163 18.3729 34.4152C17.6897 33.9521 16.8844 33.2326 16.8229 32.3996L16.8227 32.3951L16.8221 32.3898L16.8215 32.3852L16.8213 32.3811V32.3787V32.3586C16.8213 32.3312 16.8177 32.3048 16.8142 32.2785C16.8124 32.2656 16.8106 32.2527 16.8093 32.2396C16.8084 32.2313 16.8079 32.2229 16.8075 32.2145C16.8068 32.202 16.8061 32.1895 16.8037 32.1769C16.8037 32.1769 16.8013 32.1649 16.8013 32.1624L16.7994 32.1502L16.7978 32.14C16.7955 32.1244 16.7932 32.1091 16.7894 32.0933C16.7447 31.8296 16.6058 30.946 16.5603 29.9475C16.5916 29.9718 16.6225 29.996 16.6533 30.0202L16.6542 30.0209C16.7598 30.1039 16.8649 30.1865 16.9857 30.2691C17.1917 30.409 17.4247 30.4757 17.6562 30.4757C18.0393 30.4757 18.4168 30.29 18.6483 29.945C19.0195 29.3935 18.875 28.6434 18.3282 28.2703C17.7783 27.8965 16.8636 27.148 16.8229 26.3102C16.8229 26.305 16.8227 26.2999 16.8225 26.2947L16.8225 26.2945L16.8225 26.2944L16.8223 26.2889L16.8221 26.2789C16.8221 26.247 16.8188 26.2164 16.8154 26.1856V26.1856V26.1856V26.1856V26.1855V26.1855L16.8154 26.1855C16.8141 26.1735 16.8128 26.1615 16.8117 26.1494C16.8105 26.1379 16.81 26.1264 16.8095 26.1149C16.8086 26.0958 16.8077 26.0765 16.8037 26.057C16.8013 26.0449 16.6178 25.0295 16.5619 23.8532C19.5926 26.176 25.3817 27.4004 30.9322 27.4004C36.4866 27.4004 42.2806 26.1743 45.3096 23.8476C45.2545 25.0287 45.0686 26.0521 45.0662 26.0634C45.0644 26.0717 45.0641 26.0798 45.0638 26.088C45.0635 26.0947 45.0633 26.1015 45.0622 26.1084L45.0585 26.1424C45.057 26.1571 45.0556 26.1715 45.0542 26.1872L45.053 26.2021L45.0513 26.2192L45.0512 26.2193C45.0491 26.2402 45.047 26.261 45.047 26.2829C45.0327 26.9204 44.4835 27.6352 43.4922 28.3001C40.9404 30.0263 36.1275 31.0988 30.933 31.0988C27.3236 31.0988 23.862 30.5834 21.1873 29.6476C20.5599 29.4273 19.8791 29.7617 19.6636 30.3913C19.4473 31.0208 19.7777 31.7074 20.4019 31.9261C23.3224 32.9479 27.0634 33.5107 30.933 33.5107C36.663 33.5107 41.8575 32.3112 44.8227 30.3052C44.9793 30.2003 45.1157 30.0942 45.2522 29.9879L45.2523 29.9879L45.2523 29.9878L45.2524 29.9878L45.2525 29.9877L45.2525 29.9877L45.2526 29.9876L45.2527 29.9875L45.3104 29.9426C45.2657 30.9332 45.1292 31.8103 45.0821 32.0853C45.0764 32.1099 45.0726 32.135 45.0689 32.1603L45.0662 32.1785V32.1809L45.066 32.1822L45.0658 32.1843L45.0658 32.1866C45.0658 32.1879 45.0657 32.1893 45.0654 32.1906L45.0634 32.2042C45.056 32.256 45.0486 32.3079 45.0486 32.3618L45.0487 32.364L45.0489 32.366L45.0494 32.3691C45.0498 32.3715 45.0502 32.3739 45.0502 32.3763C45.0502 32.3803 45.0486 32.3843 45.0486 32.3892C45.0398 33.0219 44.4851 33.7415 43.4882 34.4144C43.3014 34.5406 43.1003 34.6637 42.8872 34.7826C42.3101 35.1075 42.1034 35.8423 42.4258 36.4236C42.6445 36.8191 43.0524 37.0427 43.4722 37.0427C43.6702 37.0427 43.8705 36.9928 44.0549 36.8899C44.3135 36.7444 44.5569 36.5932 44.7876 36.4389C44.8164 36.4212 44.8435 36.4019 44.8698 36.3818C45.0111 36.2852 45.1373 36.1874 45.2629 36.09L45.3096 36.0537C45.2841 36.6045 45.2218 37.3216 45.0766 38.2277V38.2293C45.059 38.3113 45.0486 38.3966 45.0486 38.4834L45.0488 38.4867L45.0495 38.4915L45.0502 38.4954L45.0502 38.4955C45.0367 39.121 44.5099 39.822 43.56 40.4765C43.5395 40.4881 43.5195 40.5008 43.4992 40.5137L43.499 40.5137L43.499 40.5138L43.4989 40.5138L43.4842 40.5231C40.9396 42.2453 36.1307 43.3146 30.9322 43.3146C30.2817 43.3146 29.6647 43.2937 29.07 43.2631C28.2599 41.7781 27.2071 40.45 25.9795 39.3075ZM45.0504 20.1195C45.0177 18.0951 39.6548 15.2868 30.9332 15.2868C22.2435 15.2868 16.8909 18.075 16.8207 20.0978C16.8223 20.1276 16.8223 20.1573 16.8215 20.1871C16.9045 22.2091 22.2539 24.9901 30.934 24.9901C39.6396 24.9901 44.9977 22.1922 45.0488 20.1686C45.0488 20.1517 45.0496 20.1356 45.0504 20.1195ZM15.4878 63.9394C8.26834 63.9394 2.39459 58.0229 2.39459 50.75C2.39459 43.4772 8.26834 37.5606 15.4878 37.5606C22.7081 37.5606 28.5818 43.4772 28.5818 50.75C28.5818 58.0229 22.7081 63.9394 15.4878 63.9394ZM33.7995 55.4282C34.0094 55.4145 34.193 55.3977 34.3806 55.38C41.0134 54.7521 45.0011 52.5226 45.0538 50.7265C45.0538 50.7201 45.0548 50.714 45.0558 50.7078C45.0566 50.7031 45.0574 50.6984 45.0578 50.6936L45.0588 50.6698V50.6698C45.0606 50.6256 45.0624 50.5819 45.0705 50.5376L45.0724 50.5269C45.0922 50.4127 45.2665 49.4089 45.3156 48.2703L45.2315 48.3359C45.1079 48.4324 44.9841 48.5292 44.8423 48.6249C44.8047 48.6538 44.7664 48.6796 44.7361 48.6989C42.8883 49.9241 40.1721 50.856 36.8956 51.3834C36.831 51.3938 36.7679 51.3986 36.7049 51.3986C36.1278 51.3986 35.6186 50.9766 35.5244 50.3832C35.4198 49.7256 35.8652 49.1065 36.5173 49.002C39.4203 48.5349 41.8762 47.7084 43.4335 46.6752C43.4359 46.6736 43.4375 46.6728 43.4391 46.672C43.4566 46.6576 43.4766 46.6439 43.4957 46.631C44.0664 46.2475 45.0258 45.4765 45.0514 44.6138C45.0514 44.6114 45.051 44.609 45.0506 44.6066L45.05 44.6028L45.0498 44.5994C45.0498 44.5165 45.0602 44.4289 45.0777 44.3437C45.2246 43.4344 45.286 42.7148 45.3116 42.1641L45.2457 42.2151L45.2456 42.2153C45.1203 42.3126 44.9944 42.4103 44.8518 42.5074L44.8383 42.5172C44.8292 42.5238 44.8202 42.5304 44.8111 42.5363C44.7896 42.5508 44.768 42.5653 44.7449 42.5781C41.7701 44.5519 36.6179 45.7281 30.9333 45.7281C30.7448 45.7281 30.5623 45.7239 30.3802 45.7198H30.3801H30.3801H30.3801H30.38H30.38H30.38C30.2977 45.7179 30.2154 45.716 30.1327 45.7145C30.535 46.8963 30.8016 48.1377 30.9101 49.4273C31.4984 49.4281 32.0874 49.4192 32.6629 49.3927C33.3214 49.3702 33.8833 49.8767 33.9129 50.5424C33.9432 51.2073 33.4324 51.7717 32.7715 51.8022C32.1681 51.8296 31.5551 51.8441 30.9333 51.8441H30.9213C30.8335 53.116 30.6044 54.3485 30.2301 55.5191C30.3337 55.5211 30.4391 55.5254 30.5445 55.5297C30.6851 55.5354 30.8256 55.5411 30.962 55.5416C31.2079 55.5416 31.4473 55.5416 31.6939 55.5351L31.7557 55.5336C32.0223 55.527 32.2688 55.521 32.5097 55.5038C32.5802 55.4994 32.647 55.4976 32.7131 55.4959H32.7133L32.7136 55.4959L32.7139 55.4959L32.7142 55.4959L32.7146 55.4959C32.7691 55.4944 32.8231 55.493 32.8784 55.4901L32.8841 55.4899C32.9077 55.4889 32.9575 55.4869 32.9758 55.4869L33.7995 55.4282ZM6.69289 2.47576C7.46072 2.47576 8.08316 3.09821 8.08316 3.86603V6.43701H10.8445C11.6123 6.43701 12.2348 7.05945 12.2348 7.82728C12.2348 8.59511 11.6123 9.21755 10.8445 9.21755H8.08316V11.9788C8.08316 12.7467 7.46072 13.3691 6.69289 13.3691C5.92506 13.3691 5.30262 12.7467 5.30262 11.9788V9.21755H2.73169C1.96387 9.21755 1.34142 8.59511 1.34142 7.82728C1.34142 7.05945 1.96387 6.43701 2.73169 6.43701H5.30262V3.86603C5.30262 3.09821 5.92506 2.47576 6.69289 2.47576ZM61.6547 31.1946C62.4225 31.1946 63.045 31.817 63.045 32.5848V35.1558H65.8063C66.5741 35.1558 67.1965 35.7782 67.1965 36.546C67.1965 37.3139 66.5741 37.9363 65.8063 37.9363H63.045V40.6976C63.045 41.4654 62.4225 42.0879 61.6547 42.0879C60.8869 42.0879 60.2644 41.4654 60.2644 40.6976V37.9363H57.6935C56.9257 37.9363 56.3032 37.3139 56.3032 36.546C56.3032 35.7782 56.9257 35.1558 57.6935 35.1558H60.2644V32.5848C60.2644 31.817 60.8869 31.1946 61.6547 31.1946Z" fill="#F2F2F2"/>
</svg>
