<svg width="28" height="28" viewBox="0 0 28 28" fill="none" xmlns="http://www.w3.org/2000/svg">
<path d="M13.8113 0C6.2044 0 0 6.2044 0 13.8113C0 21.4182 6.2044 27.6226 13.8113 27.6226C21.4182 27.6226 27.6226 21.4182 27.6226 13.8113C27.6226 6.2044 21.4182 0 13.8113 0ZM13.8113 3.56421C19.4918 3.56421 24.0584 8.13086 24.0584 13.8113C24.0584 19.4918 19.4918 24.0584 13.8113 24.0584C8.13086 24.0584 3.56421 19.4918 3.56421 13.8113C3.56421 8.13086 8.13086 3.56421 13.8113 3.56421ZM11.5141 8.01948C10.8475 8.03514 10.2645 8.60249 10.2471 9.41175V18.2109C10.2697 19.2899 11.2861 19.9356 12.1824 19.4222L19.3946 15.0087C19.7861 14.7686 20.049 14.3283 20.049 13.8114C20.049 13.2945 19.7862 12.8542 19.3946 12.614L12.1824 8.20054C11.9579 8.07175 11.7369 8.01432 11.5141 8.01954V8.01948Z" fill="white"/>
</svg>
