<svg width="52" height="58" viewBox="0 0 52 58" fill="none" xmlns="http://www.w3.org/2000/svg">
<path fill-rule="evenodd" clip-rule="evenodd" d="M4.8593 3.21854C4.09147 3.21854 3.46902 3.84098 3.46902 4.60881V49.0976C3.46902 49.8654 4.09147 50.4878 4.8593 50.4878H23.3963C24.1641 50.4878 24.7866 51.1103 24.7866 51.8781C24.7866 52.6459 24.1641 53.2684 23.3963 53.2684H4.8593C2.55582 53.2684 0.688477 51.4011 0.688477 49.0976V4.60881C0.688477 2.30534 2.55581 0.437988 4.8593 0.437988H29.3096C30.5193 0.437988 31.6694 0.963186 32.4616 1.87736L42.3047 13.2359C42.9618 13.9942 43.3235 14.964 43.3235 15.9674V31.087C43.3235 31.8549 42.7011 32.4773 41.9333 32.4773C41.1654 32.4773 40.543 31.8549 40.543 31.087V16.1944H30.3476C29.3239 16.1944 28.494 15.3645 28.494 14.3407V3.21854H4.8593ZM31.2745 4.75332L38.7796 13.4139H31.2745V4.75332ZM28.7257 36.1217C27.9578 36.1217 27.3354 36.7441 27.3354 37.512V56.049C27.3354 56.8168 27.9578 57.4392 28.7257 57.4392H47.2626C48.0305 57.4392 48.6529 56.8168 48.6529 56.049V48.071C48.6529 47.3032 48.0305 46.6807 47.2626 46.6807C46.4948 46.6807 45.8724 47.3032 45.8724 48.071V54.6587H30.1159V38.9022H30.1275H30.1608H30.1941H30.2275H30.2609H30.2944H30.3279H30.3615H30.3952H30.4289H30.4626H30.4964H30.5303H30.5642H30.5981H30.6321H30.6662H30.7003H30.7344H30.7686H30.8029H30.8371H30.8715H30.9059H30.9403H30.9748H31.0093H31.0438H31.0784H31.1131H31.1478H31.1825H31.2173H31.2521H31.287H31.3219H31.3568H31.3918H31.4268H31.4618H31.4969H31.5321H31.5672H31.6024H31.6377H31.673H31.7083H31.7436H31.779H31.8144H31.8499H31.8853H31.9209H31.9564H31.992H32.0276H32.0632H32.0989H32.1346H32.1703H32.2061H32.2419H32.2777H32.3135H32.3494H32.3853H32.4212H32.4572H32.4932H32.5292H32.5652H32.6012H32.6373H32.6734H32.7095H32.7457H32.7818H32.818H32.8542H32.8904H32.9267H32.9629H32.9992H33.0355H33.0718H33.1082H33.1445H33.1809H33.2173H33.2537H33.2901H33.3265H33.363H33.3994H33.4359H33.4724H33.5089H33.5454H33.5819H33.6185H33.655H33.6916H33.7281H33.7647H33.8013H33.8379H33.8745H33.9111H33.9477H33.9843H34.021H34.0576H34.0942H34.1309H34.1675H34.2042H34.2408H34.2775H34.3141H34.3508H34.3875H34.4241H34.4608H34.4975H34.5341H34.5708H34.6075H34.6441H34.6808H34.7174H34.7541H34.7907H34.8274H34.864H34.9007H34.9373H34.9739H35.0105H35.0472H35.0838H35.1204H35.157H35.1935H35.2301H35.2667H35.3032H35.3398H35.3763H35.4128H35.4493H35.4858H35.5223H35.5588H35.5953H35.6317H35.6681H35.7046H35.741H35.7773H35.8137H35.8501H35.8864H35.9227H35.959H35.9953H36.0316H36.0678H36.104H36.1402H36.1764H36.2126H36.2487H36.2848H36.3209H36.357H36.393H36.4291H36.4651H36.501H36.537H36.5729H36.6088H36.6447H36.6805H36.7163H36.7521H36.7879H36.8236H36.8593H36.895H36.9306H36.9662H37.0018H37.0374H37.0729H37.1084H37.1438H37.1792H37.2146H37.2499H37.2853H37.3205H37.3558H37.391H37.4261H37.4613H37.4964H37.5314H37.5664H37.6014H37.6363H37.6712H37.7061H37.7409H37.7757H37.8104H37.8451H37.8797H37.9143H37.9489H37.9834H38.0179H38.0523H38.0867H38.121H38.1553H38.1896H38.2238H38.2579H38.292H38.326H38.36H38.394H38.4279H38.4617H38.4955H38.5293H38.563H38.5966H38.6302H38.6638H38.6972H38.7307H38.7641H38.7974H38.8306H38.8638H38.897H38.9301H38.9631H38.9961H39.029H39.0619H39.0947H39.1274H39.1601H39.1928H39.2253H39.2578H39.2903H39.3226H39.3549H39.3872H39.4194H39.4515H39.4836H39.5156H39.5475H39.5793H39.6111H39.6429H39.6745H39.7061H39.7377H39.7691H39.8005H39.8318H39.8631H39.8942H39.9253H39.9564H39.9873H40.0182H40.049H40.0798H40.1104H40.141H40.1716H40.202H40.2324H40.2627H40.2929H40.323H40.3531H40.3831H40.413H40.4428H40.4726H40.5022H40.5318H40.5613H40.5908H40.6201H40.6494H40.6785H40.7076H40.7366H40.7656H40.7944H40.8232H40.8519H40.8804H40.909H40.9374H40.9657H40.9939H41.0221H41.0502H41.0781H41.106H41.1338H41.1615H41.1892H41.2167H41.2441H41.2715H41.2987H41.3259H41.3529H41.3799H41.4068H41.4336H41.4602H41.4868H41.5133H41.5397H41.566H41.5922H41.6183H41.6443H41.6702H41.6961H41.7218H41.7474H41.7729H41.7983H41.8236H41.8488H41.8739H41.8989H41.9238H41.9486H41.9732H41.9978H42.0223H42.0467H42.0709H42.0951H42.1191H42.1431H42.1669H42.1906H42.2142H42.2377H42.2611H42.2844H42.3076H42.3307H42.3536H42.3765H42.3992H42.4218H42.4443H42.4667H42.489H42.5111H42.5332H42.5551H42.5769H42.5986H42.6202H42.6416H42.663H42.6842H42.7053H42.7263H42.7471H42.7679H42.7885H42.809H42.8294H42.8496H42.8697H42.8898H42.9096H42.9294H42.949H42.9686H42.9879H43.0072H43.0263H43.0454H43.0642H43.083H43.1016H43.1201H43.1385H43.1567H43.1748H43.1928H43.2106H43.2284H43.2459H43.2634H43.2807H43.2979H43.315H43.3319H43.3487H43.3653H43.3818H43.3982H43.4144H43.4305H43.4465H43.4623H43.478H43.4936H43.509H43.5243H43.5394H43.5544H43.5692H43.5839H43.5985H43.6129H43.6272H43.6414H43.6554H43.6692H43.6829H43.6965H43.7099H43.7232H43.7363H43.7493H43.7621H43.7748H43.7873H43.7997H43.8119H43.824H43.836H43.8477H43.8594H43.8709H43.8822H43.8934H43.9044H43.9153H43.926H43.9366H43.947H43.9572H43.9673H43.9773H43.9871H43.9967H44.0062C44.774 38.9022 45.3964 38.2798 45.3964 37.512C45.3964 36.7441 44.774 36.1217 44.0062 36.1217H43.9967H43.9871H43.9773H43.9673H43.9572H43.947H43.9366H43.926H43.9153H43.9044H43.8934H43.8822H43.8709H43.8594H43.8477H43.836H43.824H43.8119H43.7997H43.7873H43.7748H43.7621H43.7493H43.7363H43.7232H43.7099H43.6965H43.6829H43.6692H43.6554H43.6414H43.6272H43.6129H43.5985H43.5839H43.5692H43.5544H43.5394H43.5243H43.509H43.4936H43.478H43.4623H43.4465H43.4305H43.4144H43.3982H43.3818H43.3653H43.3487H43.3319H43.315H43.2979H43.2807H43.2634H43.2459H43.2284H43.2106H43.1928H43.1748H43.1567H43.1385H43.1201H43.1016H43.083H43.0642H43.0454H43.0263H43.0072H42.9879H42.9686H42.949H42.9294H42.9096H42.8898H42.8697H42.8496H42.8294H42.809H42.7885H42.7679H42.7471H42.7263H42.7053H42.6842H42.663H42.6416H42.6202H42.5986H42.5769H42.5551H42.5332H42.5111H42.489H42.4667H42.4443H42.4218H42.3992H42.3765H42.3536H42.3307H42.3076H42.2844H42.2611H42.2377H42.2142H42.1906H42.1669H42.1431H42.1191H42.0951H42.0709H42.0467H42.0223H41.9978H41.9732H41.9486H41.9238H41.8989H41.8739H41.8488H41.8236H41.7983H41.7729H41.7474H41.7218H41.6961H41.6702H41.6443H41.6183H41.5922H41.566H41.5397H41.5133H41.4868H41.4602H41.4336H41.4068H41.3799H41.3529H41.3259H41.2987H41.2715H41.2441H41.2167H41.1892H41.1615H41.1338H41.106H41.0781H41.0502H41.0221H40.9939H40.9657H40.9374H40.909H40.8804H40.8519H40.8232H40.7944H40.7656H40.7366H40.7076H40.6785H40.6494H40.6201H40.5908H40.5613H40.5318H40.5022H40.4726H40.4428H40.413H40.3831H40.3531H40.323H40.2929H40.2627H40.2324H40.202H40.1716H40.141H40.1104H40.0798H40.049H40.0182H39.9873H39.9564H39.9253H39.8942H39.8631H39.8318H39.8005H39.7691H39.7377H39.7061H39.6745H39.6429H39.6111H39.5793H39.5475H39.5156H39.4836H39.4515H39.4194H39.3872H39.3549H39.3226H39.2903H39.2578H39.2253H39.1928H39.1601H39.1274H39.0947H39.0619H39.029H38.9961H38.9631H38.9301H38.897H38.8638H38.8306H38.7974H38.7641H38.7307H38.6972H38.6638H38.6302H38.5966H38.563H38.5293H38.4955H38.4617H38.4279H38.394H38.36H38.326H38.292H38.2579H38.2238H38.1896H38.1553H38.121H38.0867H38.0523H38.0179H37.9834H37.9489H37.9143H37.8797H37.8451H37.8104H37.7757H37.7409H37.7061H37.6712H37.6363H37.6014H37.5664H37.5314H37.4964H37.4613H37.4261H37.391H37.3558H37.3205H37.2853H37.2499H37.2146H37.1792H37.1438H37.1084H37.0729H37.0374H37.0018H36.9662H36.9306H36.895H36.8593H36.8236H36.7879H36.7521H36.7163H36.6805H36.6447H36.6088H36.5729H36.537H36.501H36.4651H36.4291H36.393H36.357H36.3209H36.2848H36.2487H36.2126H36.1764H36.1402H36.104H36.0678H36.0316H35.9953H35.959H35.9227H35.8864H35.8501H35.8137H35.7773H35.741H35.7046H35.6681H35.6317H35.5953H35.5588H35.5223H35.4858H35.4493H35.4128H35.3763H35.3398H35.3032H35.2667H35.2301H35.1935H35.157H35.1204H35.0838H35.0472H35.0105H34.9739H34.9373H34.9007H34.864H34.8274H34.7907H34.7541H34.7174H34.6808H34.6441H34.6075H34.5708H34.5341H34.4975H34.4608H34.4241H34.3875H34.3508H34.3141H34.2775H34.2408H34.2042H34.1675H34.1309H34.0942H34.0576H34.021H33.9843H33.9477H33.9111H33.8745H33.8379H33.8013H33.7647H33.7281H33.6916H33.655H33.6185H33.5819H33.5454H33.5089H33.4724H33.4359H33.3994H33.363H33.3265H33.2901H33.2537H33.2173H33.1809H33.1445H33.1082H33.0718H33.0355H32.9992H32.9629H32.9267H32.8904H32.8542H32.818H32.7818H32.7457H32.7095H32.6734H32.6373H32.6012H32.5652H32.5292H32.4932H32.4572H32.4212H32.3853H32.3494H32.3135H32.2777H32.2419H32.2061H32.1703H32.1346H32.0989H32.0632H32.0276H31.992H31.9564H31.9209H31.8853H31.8499H31.8144H31.779H31.7436H31.7083H31.673H31.6377H31.6024H31.5672H31.5321H31.4969H31.4618H31.4268H31.3918H31.3568H31.3219H31.287H31.2521H31.2173H31.1825H31.1478H31.1131H31.0784H31.0438H31.0093H30.9748H30.9403H30.9059H30.8715H30.8371H30.8029H30.7686H30.7344H30.7003H30.6662H30.6321H30.5981H30.5642H30.5303H30.4964H30.4626H30.4289H30.3952H30.3615H30.3279H30.2944H30.2609H30.2275H30.1941H30.1608H30.1275H30.0943H30.0611H30.028H29.995H29.962H29.9291H29.8962H29.8634H29.8307H29.798H29.7654H29.7328H29.7003H29.6679H29.6355H29.6032H29.5709H29.5387H29.5066H29.4745H29.4425H29.4106H29.3787H29.347H29.3152H29.2836H29.252H29.2204H29.189H29.1576H29.1263H29.095H29.0638H29.0327H29.0017H28.9707H28.9398H28.909H28.8783H28.8476H28.817H28.7865H28.756H28.7257ZM51.2862 37.9482C51.8131 38.5067 51.7875 39.3866 51.2289 39.9135L38.9482 51.4992C38.6561 51.7747 38.259 51.9106 37.8593 51.8716C37.4596 51.8327 37.0963 51.6228 36.8629 51.296L33.3872 46.43C32.9409 45.8052 33.0856 44.9369 33.7104 44.4906C34.3352 44.0443 35.2035 44.189 35.6498 44.8138L38.1993 48.3831L49.3209 37.891C49.8794 37.3641 50.7593 37.3897 51.2862 37.9482ZM9.95697 12.0237C9.18915 12.0237 8.5667 12.6461 8.5667 13.4139C8.5667 14.1818 9.18915 14.8042 9.95697 14.8042H19.2255C19.9933 14.8042 20.6157 14.1818 20.6157 13.4139C20.6157 12.6461 19.9933 12.0237 19.2255 12.0237H9.95697ZM8.5667 21.7555C8.5667 20.9877 9.18915 20.3653 9.95697 20.3653H27.5671C28.3349 20.3653 28.9574 20.9877 28.9574 21.7555C28.9574 22.5234 28.3349 23.1458 27.5671 23.1458H9.95697C9.18915 23.1458 8.5667 22.5234 8.5667 21.7555ZM9.95697 28.7069C9.18915 28.7069 8.5667 29.3293 8.5667 30.0972C8.5667 30.865 9.18915 31.4874 9.95697 31.4874H27.5671C28.3349 31.4874 28.9574 30.865 28.9574 30.0972C28.9574 29.3293 28.3349 28.7069 27.5671 28.7069H9.95697Z" fill="#F2F2F2"/>
</svg>
