<svg width="62" height="61" viewBox="0 0 62 61" fill="none" xmlns="http://www.w3.org/2000/svg">
<path fill-rule="evenodd" clip-rule="evenodd" d="M29.0807 12.049H29.0814V12.0397V12.023V12.0063V11.9896V11.9728V11.9561V11.9393V11.9225V11.9057V11.8889V11.8721V11.8553V11.8384V11.8216V11.8047V11.7878V11.7709V11.754V11.7371V11.7202V11.7033V11.6863V11.6694V11.6524V11.6355V11.6185V11.6015V11.5845V11.5675V11.5505V11.5335V11.5165V11.4995V11.4824V11.4654V11.4484V11.4313V11.4143V11.3972V11.3801V11.3631V11.346V11.3289V11.3118V11.2947V11.2777V11.2606V11.2435V11.2264V11.2093V11.1922V11.1751V11.1579V11.1408V11.1237V11.1066V11.0895V11.0724V11.0553V11.0382V11.021V11.0039V10.9868V10.9697V10.9526V10.9355V10.9184V10.9013V10.8842V10.8671V10.85V10.8329V10.8158V10.7987V10.7816V10.7645V10.7474V10.7303V10.7133V10.6962V10.6791V10.6621V10.645V10.628V10.6109V10.5939V10.5769V10.5598V10.5428V10.5258V10.5088V10.4918V10.4748V10.4579V10.4409V10.4239V10.407V10.39V10.3731V10.3562V10.3392V10.3223V10.3054V10.2886V10.2717V10.2548V10.238V10.2211V10.2043V10.1875V10.1707V10.1539V10.1371V10.1203V10.1036V10.0868V10.0701V10.0534V10.0367V10.02V10.0033V9.98664V9.97V9.95337V9.93676V9.92016V9.90358V9.88701V9.87046V9.85393V9.83741V9.82091V9.80443V9.78797V9.77152V9.75509V9.73868V9.72229V9.70592V9.68957V9.67323V9.65692V9.64062V9.62435V9.60809V9.59186V9.57564V9.55945V9.54328V9.52713V9.511V9.49489V9.47881V9.46275V9.44671V9.43069V9.4147V9.39872V9.38278V9.36685V9.35095V9.33508V9.31923V9.3034V9.2876V9.27183V9.25608V9.24035V9.22466V9.20898V9.19334V9.17772V9.16213V9.14656V9.13102V9.11552V9.10003V9.08458V9.06915V9.05376V9.03839V9.02305V9.00774V8.99246V8.97721V8.96199V8.9468V8.93164V8.91651V8.90142V8.88635V8.87131V8.85631V8.84134V8.8264V8.8115V8.79662V8.78178V8.76697V8.7522V8.73746V8.72275V8.70808V8.69344V8.67884V8.66427V8.64973V8.63524V8.62077V8.60635V8.59196V8.5776V8.56328V8.549V8.53476V8.52055V8.50638V8.49225V8.47815V8.4641V8.45008V8.4361V8.42216V8.40826V8.3944V8.38058V8.3668V8.35306V8.33936V8.3257V8.31208V8.2985V8.28496V8.27147V8.25801V8.2446V8.23123V8.2179V8.20462V8.19138V8.17818V8.16503V8.15192V8.13885V8.12583V8.11285V8.09992V8.08703V8.07418V8.06139V8.04863V8.03593V8.02327V8.01065V7.99809V7.98557V7.97309V7.96067V7.94829V7.93596V7.92368V7.91144V7.89926V7.88712V7.87503V7.863V7.85101V7.83907V7.82718V7.81534V7.80355V7.79181V7.78013V7.76849V7.75691V7.74537V7.73389V7.72246V7.71109V7.69976V7.68849V7.67728V7.66611V7.655V7.64394V7.63294V7.62199V7.6111V7.60026V7.58947V7.57875V7.56807V7.55745V7.54689V7.53639V7.52594V7.51555V7.50521V7.49493V7.48471V7.47455V7.46444V7.45439V7.44441V7.43448V7.42461V7.41479C29.0814 4.9354 26.9841 2.78055 24.2155 2.78055C21.4468 2.78055 19.3495 4.9354 19.3495 7.41479C19.3495 9.89418 21.4468 12.049 24.2155 12.049H24.2301H24.2448H24.2595H24.2743H24.289H24.3038H24.3187H24.3335H24.3484H24.3633H24.3782H24.3931H24.4081H24.4231H24.4381H24.4531H24.4681H24.4832H24.4983H24.5134H24.5286H24.5438H24.559H24.5742H24.5894H24.6047H24.6199H24.6352H24.6505H24.6659H24.6812H24.6966H24.712H24.7275H24.7429H24.7584H24.7739H24.7894H24.8049H24.8204H24.836H24.8516H24.8672H24.8828H24.8984H24.9141H24.9298H24.9455H24.9612H24.9769H24.9927H25.0085H25.0243H25.0401H25.0559H25.0717H25.0876H25.1035H25.1194H25.1353H25.1512H25.1671H25.1831H25.1991H25.2151H25.2311H25.2471H25.2631H25.2792H25.2953H25.3114H25.3275H25.3436H25.3597H25.3759H25.392H25.4082H25.4244H25.4406H25.4568H25.473H25.4893H25.5056H25.5218H25.5381H25.5544H25.5707H25.5871H25.6034H25.6198H25.6361H25.6525H25.6689H25.6853H25.7017H25.7181H25.7346H25.751H25.7675H25.7839H25.8004H25.8169H25.8334H25.8499H25.8665H25.883H25.8996H25.9161H25.9327H25.9493H25.9658H25.9824H25.999H26.0157H26.0323H26.0489H26.0655H26.0822H26.0989H26.1155H26.1322H26.1489H26.1656H26.1823H26.199H26.2157H26.2324H26.2491H26.2659H26.2826H26.2994H26.3161H26.3329H26.3497H26.3664H26.3832H26.4H26.4168H26.4336H26.4504H26.4672H26.484H26.5009H26.5177H26.5345H26.5514H26.5682H26.585H26.6019H26.6187H26.6356H26.6525H26.6693H26.6862H26.7031H26.7199H26.7368H26.7537H26.7706H26.7875H26.8044H26.8213H26.8382H26.8551H26.8719H26.8889H26.9058H26.9227H26.9396H26.9565H26.9734H26.9903H27.0072H27.0241H27.041H27.0579H27.0748H27.0918H27.1087H27.1256H27.1425H27.1594H27.1763H27.1932H27.2101H27.227H27.244H27.2609H27.2778H27.2947H27.3116H27.3285H27.3454H27.3623H27.3792H27.3961H27.4129H27.4298H27.4467H27.4636H27.4805H27.4973H27.5142H27.5311H27.5479H27.5648H27.5817H27.5985H27.6154H27.6322H27.649H27.6659H27.6827H27.6995H27.7164H27.7332H27.75H27.7668H27.7836H27.8004H27.8172H27.8339H27.8507H27.8675H27.8842H27.901H27.9177H27.9345H27.9512H27.9679H27.9847H28.0014H28.0181H28.0348H28.0515H28.0681H28.0848H28.1015H28.1181H28.1348H28.1514H28.1681H28.1847H28.2013H28.2179H28.2345H28.2511H28.2676H28.2842H28.3008H28.3173H28.3338H28.3504H28.3669H28.3834H28.3999H28.4163H28.4328H28.4493H28.4657H28.4821H28.4986H28.515H28.5314H28.5478H28.5641H28.5805H28.5968H28.6132H28.6295H28.6458H28.6621H28.6784H28.6947H28.7109H28.7272H28.7434H28.7596H28.7758H28.792H28.8082H28.8243H28.8405H28.8566H28.8727H28.8888H28.9049H28.9209H28.937H28.953H28.969H28.9851H29.001H29.017H29.033H29.0489H29.0648H29.0807ZM18.2461 12.0491C17.1967 10.7796 16.5689 9.1683 16.5689 7.41479C16.5689 3.31972 19.9924 0 24.2155 0C26.8146 0 29.1108 1.25746 30.4924 3.17923C31.916 1.25746 34.2818 0 36.9596 0C41.3107 0 44.8379 3.31972 44.8379 7.41479C44.8379 9.1683 44.1911 10.7796 43.1099 12.0491H59.204C60.4837 12.0491 61.5211 13.0865 61.5211 14.3662V23.1712C61.5211 24.451 60.4837 25.4884 59.204 25.4884H57.3503V37.5374C57.3503 38.3052 56.7278 38.9277 55.96 38.9277C55.1922 38.9277 54.5697 38.3052 54.5697 37.5374V25.4884H36.9596L36.9596 33.83L36.9596 33.8333V37.5374C36.9596 38.3052 36.3372 38.9277 35.5693 38.9277C34.8015 38.9277 34.1791 38.3052 34.1791 37.5374L34.1791 33.83L34.1791 24.0981L34.1791 24.0948V14.8296H26.7643V25.0189L26.7643 25.0249L26.7643 52.8304H32.7888C33.5566 52.8304 34.1791 53.4529 34.1791 54.2207C34.1791 54.9885 33.5566 55.611 32.7888 55.611H25.7216C25.5144 55.611 25.3157 55.5747 25.1315 55.5082C24.9152 55.575 24.6854 55.611 24.4472 55.611H7.30046C6.02074 55.611 4.98333 54.5735 4.98333 53.2938V25.4884H3.12962C1.84991 25.4884 0.8125 24.451 0.8125 23.1712V14.3662C0.8125 13.0865 1.84991 12.0491 3.12962 12.0491H18.2461ZM3.59305 22.7078V14.8296H23.9837V22.7078L7.30046 22.7078L7.29309 22.7078H3.59305ZM7.76388 25.4884H23.9837V52.8304H7.76388V25.4884ZM36.9596 14.8296H58.7406V22.7078H55.9696L55.96 22.7078H36.9596V14.8296ZM31.862 12.049H31.8653H31.8816H31.8979H31.9142H31.9306H31.9469H31.9633H31.9797H31.9961H32.0126H32.029H32.0455H32.062H32.0785H32.095H32.1116H32.1281H32.1447H32.1613H32.1779H32.1945H32.2111H32.2278H32.2444H32.2611H32.2778H32.2945H32.3112H32.328H32.3447H32.3615H32.3782H32.395H32.4118H32.4287H32.4455H32.4623H32.4792H32.4961H32.5129H32.5298H32.5467H32.5637H32.5806H32.5975H32.6145H32.6315H32.6484H32.6654H32.6824H32.6994H32.7165H32.7335H32.7505H32.7676H32.7847H32.8017H32.8188H32.8359H32.853H32.8701H32.8873H32.9044H32.9215H32.9387H32.9558H32.973H32.9902H33.0074H33.0246H33.0418H33.059H33.0762H33.0934H33.1107H33.1279H33.1452H33.1624H33.1797H33.1969H33.2142H33.2315H33.2488H33.2661H33.2834H33.3007H33.318H33.3353H33.3526H33.37H33.3873H33.4047H33.422H33.4393H33.4567H33.4741H33.4914H33.5088H33.5262H33.5435H33.5609H33.5783H33.5957H33.6131H33.6305H33.6479H33.6653H33.6827H33.7001H33.7175H33.7349H33.7523H33.7697H33.7871H33.8045H33.8219H33.8394H33.8568H33.8742H33.8916H33.9091H33.9265H33.9439H33.9613H33.9787H33.9962H34.0136H34.031H34.0484H34.0659H34.0833H34.1007H34.1181H34.1356H34.153H34.1704H34.1878H34.2052H34.2226H34.2401H34.2575H34.2749H34.2923H34.3097H34.3271H34.3445H34.3619H34.3793H34.3966H34.414H34.4314H34.4488H34.4661H34.4835H34.5009H34.5182H34.5356H34.5529H34.5703H34.5876H34.605H34.6223H34.6396H34.6569H34.6743H34.6916H34.7089H34.7262H34.7435H34.7608H34.778H34.7953H34.8126H34.8298H34.8471H34.8643H34.8816H34.8988H34.916H34.9332H34.9504H34.9676H34.9848H35.002H35.0192H35.0363H35.0535H35.0706H35.0878H35.1049H35.122H35.1391H35.1562H35.1733H35.1904H35.2074H35.2245H35.2416H35.2586H35.2756H35.2926H35.3096H35.3266H35.3436H35.3606H35.3775H35.3945H35.4114H35.4284H35.4453H35.4622H35.479H35.4959H35.5128H35.5296H35.5465H35.5633H35.5801H35.5969H35.6137H35.6304H35.6472H35.6639H35.6807H35.6974H35.7141H35.7307H35.7474H35.7641H35.7807H35.7973H35.8139H35.8305H35.8471H35.8637H35.8802H35.8967H35.9132H35.9297H35.9462H35.9627H35.9791H35.9955H36.012H36.0283H36.0447H36.0611H36.0774H36.0937H36.11H36.1263H36.1426H36.1588H36.1751H36.1913H36.2075H36.2237H36.2398H36.2559H36.2721H36.2882H36.3042H36.3203H36.3363H36.3523H36.3683H36.3843H36.4003H36.4162H36.4321H36.448H36.4639H36.4797H36.4956H36.5114H36.5271H36.5429H36.5586H36.5744H36.5901H36.6057H36.6214H36.637H36.6526H36.6682H36.6838H36.6993H36.7148H36.7303H36.7457H36.7612H36.7766H36.792H36.8074H36.8227H36.838H36.8533H36.8686H36.8838H36.899H36.9142H36.9294H36.9445H36.9596C39.9362 12.049 42.0573 9.81781 42.0573 7.41479C42.0573 5.01177 39.9362 2.78055 36.9596 2.78055C33.9831 2.78055 31.862 5.01177 31.862 7.41479V7.42461V7.43448V7.44441V7.45439V7.46444V7.47455V7.48471V7.49493V7.50521V7.51555V7.52594V7.53639V7.54689V7.55745V7.56807V7.57875V7.58947V7.60026V7.6111V7.62199V7.63294V7.64394V7.655V7.66611V7.67728V7.68849V7.69976V7.71109V7.72246V7.73389V7.74537V7.75691V7.76849V7.78013V7.79181V7.80355V7.81534V7.82718V7.83907V7.85101V7.863V7.87503V7.88712V7.89926V7.91144V7.92368V7.93596V7.94829V7.96067V7.97309V7.98557V7.99809V8.01065V8.02327V8.03593V8.04863V8.06139V8.07418V8.08703V8.09992V8.11285V8.12583V8.13885V8.15192V8.16503V8.17818V8.19138V8.20462V8.2179V8.23123V8.2446V8.25801V8.27147V8.28496V8.2985V8.31208V8.3257V8.33936V8.35306V8.3668V8.38058V8.3944V8.40826V8.42216V8.4361V8.45008V8.4641V8.47815V8.49225V8.50638V8.52055V8.53476V8.549V8.56328V8.5776V8.59196V8.60635V8.62077V8.63524V8.64973V8.66427V8.67884V8.69344V8.70808V8.72275V8.73746V8.7522V8.76697V8.78178V8.79662V8.8115V8.8264V8.84134V8.85631V8.87131V8.88635V8.90142V8.91651V8.93164V8.9468V8.96199V8.97721V8.99246V9.00774V9.02305V9.03839V9.05376V9.06915V9.08458V9.10003V9.11552V9.13102V9.14656V9.16213V9.17772V9.19334V9.20898V9.22466V9.24035V9.25608V9.27183V9.2876V9.3034V9.31923V9.33508V9.35095V9.36685V9.38278V9.39872V9.4147V9.43069V9.44671V9.46275V9.47881V9.49489V9.511V9.52713V9.54328V9.55945V9.57564V9.59186V9.60809V9.62435V9.64062V9.65692V9.67323V9.68957V9.70592V9.72229V9.73868V9.75509V9.77152V9.78797V9.80443V9.82091V9.83741V9.85393V9.87046V9.88701V9.90358V9.92016V9.93676V9.95337V9.97V9.98664V10.0033V10.02V10.0367V10.0534V10.0701V10.0868V10.1036V10.1203V10.1371V10.1539V10.1707V10.1875V10.2043V10.2211V10.238V10.2548V10.2717V10.2886V10.3054V10.3223V10.3392V10.3562V10.3731V10.39V10.407V10.4239V10.4409V10.4579V10.4748V10.4918V10.5088V10.5258V10.5428V10.5598V10.5769V10.5939V10.6109V10.628V10.645V10.6621V10.6791V10.6962V10.7133V10.7303V10.7474V10.7645V10.7816V10.7987V10.8158V10.8329V10.85V10.8671V10.8842V10.9013V10.9184V10.9355V10.9526V10.9697V10.9868V11.0039V11.021V11.0382V11.0553V11.0724V11.0895V11.1066V11.1237V11.1408V11.1579V11.1751V11.1922V11.2093V11.2264V11.2435V11.2606V11.2777V11.2947V11.3118V11.3289V11.346V11.3631V11.3801V11.3972V11.4143V11.4313V11.4484V11.4654V11.4824V11.4995V11.5165V11.5335V11.5505V11.5675V11.5845V11.6015V11.6185V11.6355V11.6524V11.6694V11.6863V11.7033V11.7202V11.7371V11.754V11.7709V11.7878V11.8047V11.8216V11.8384V11.8553V11.8721V11.8889V11.9057V11.9225V11.9393V11.9561V11.9728V11.9896V12.0063V12.023V12.0397V12.049ZM44.734 42.1376L46.9233 37.7457L49.1125 42.1376C49.7197 43.3557 50.883 44.2009 52.2292 44.402L57.0826 45.1269L53.5822 48.5661C52.6113 49.52 52.1669 50.8876 52.3917 52.23L53.2021 57.0699L48.8495 54.8036C47.6422 54.175 46.2043 54.175 44.997 54.8036L40.6444 57.0699L41.4548 52.23C41.6796 50.8876 41.2352 49.52 40.2643 48.5661L36.7639 45.1269L41.6174 44.402C42.9635 44.2009 44.1268 43.3557 44.734 42.1376ZM45.679 34.009C46.1908 32.9823 47.6557 32.9823 48.1675 34.009L51.601 40.8971C51.8034 41.3032 52.1912 41.5849 52.6399 41.6519L60.2519 42.7888C61.3865 42.9583 61.8392 44.3515 61.0209 45.1555L55.5309 50.5495C55.2073 50.8675 55.0591 51.3234 55.1341 51.7708L56.405 59.3616C56.5945 60.493 55.4093 61.3541 54.3918 60.8243L47.5653 57.2698C47.1629 57.0603 46.6836 57.0603 46.2812 57.2698L39.4547 60.8243C38.4372 61.3541 37.252 60.493 37.4415 59.3616L38.7124 51.7708C38.7874 51.3234 38.6392 50.8675 38.3156 50.5495L32.8256 45.1555C32.0073 44.3515 32.46 42.9583 33.5946 42.7888L41.2066 41.6519C41.6553 41.5849 42.0431 41.3032 42.2455 40.8971L45.679 34.009Z" fill="#F2F2F2"/>
</svg>
