<svg width="14" height="14" viewBox="0 0 14 14" fill="none" xmlns="http://www.w3.org/2000/svg">
<path d="M0 0H14V14H0V0ZM11.625 3.3125V3.15625H9.03125L7.1875 7.78125L5.0625 3.15625H2.34375V3.3125L3.21875 4.375C3.3125 4.46875 3.34375 4.5625 3.34375 4.6875V8.84375C3.34375 9 3.3125 9.125 3.21875 9.25L2.21875 10.4375V10.5938H5.03125V10.4375L4.03125 9.25C3.90625 9.125 3.875 9 3.90625 8.84375V5.25L6.375 10.5938H6.65625L8.75 5.25V9.53125C8.75 9.625 8.71875 9.6875 8.6875 9.71875L7.9375 10.4688V10.625H11.625V10.4688L10.875 9.75C10.8125 9.6875 10.7812 9.625 10.7812 9.53125V4.25C10.7812 4.1875 10.8125 4.09375 10.875 4.03125L11.625 3.3125Z" fill="white"/>
</svg>
